<?xml version="1.0" encoding="UTF-8"?><svg xmlns="http://www.w3.org/2000/svg" id="Calque_2" data-name="Calque 2" viewBox="0 0 446.04 434.62"><defs><style>.cls-3{fill:none;stroke-miterlimit:10}.cls-5{fill:#ffe600}.cls-3{stroke:#000;stroke-width:2px}.cls-6{fill:#1d1d1b}</style></defs><path d="M116.07 236.3c-5.58-11.62-5.82-25.63.56-37.95 10.79-20.84 36.43-28.99 57.27-18.2 20.84 10.79 28.99 36.43 18.2 57.27-6.39 12.34-17.97 20.22-30.69 22.37l-45.35-23.49ZM154.22 265.34l-37.61-19.47-56.24 121.88-.39.98a13.87 13.87 0 0 0 .54 11.43s15.99 8.28 15.99 8.28c2.88-.1 5.62-1.25 7.71-3.23l1.06-1 68.94-118.87ZM74.42 389.86l-13.94-7.22-3.27 12.15 9.29 4.81 7.92-9.74zM307.81 150.32c16.14-3.74 24.97-7.44 32.08-17.21 3.21-4.41-1.16-10.31-6.3-8.5-20.23 7.12-44.17 1.48-44.17 1.48l-.43-.86c-5.51-11.4-8.44-24.28-8.04-37.87 1.26-43.06 36.45-78.05 79.52-79.07 45.95-1.09 83.54 35.83 83.54 81.53s-36.51 81.55-81.55 81.55c-21.35 0-40.13-7.61-54.67-21.04ZM434.04 434.62H290.93c-6.6 0-12-5.4-12-12V249.48c0-36.76 30.08-66.83 66.83-66.83l3.54.84a57.26 57.26 0 0 0 26.36 0l3.54-.84c36.76 0 66.83 30.08 66.83 66.83v173.14c0 6.6-5.4 12-12 12ZM55.34 397.87l7.13 3.69C31.4 459.19 4.89 409.3 4.89 409.3s27.82 36.89 50.45-11.43Z" class="cls-5"/><path d="M112.32 227.2c-6.84-11.4-8.25-27.5-1.43-39.5 3.26-6.15 8.11-11.64 13.8-15.66.76-.61 2.12-1.37 2.95-1.89 2.97-1.85 6.28-3.18 9.58-4.31 22.05-6.94 46.27 4.39 54.99 25.82 6.86 16.55 3.03 36.03-9.59 48.77-6.78 6.88-15.82 11.41-25.35 12.87l-.74-.39-11.51-5.97c-11.16-5.78-22.07-13.27-32.69-19.74Zm0 0c11.79 5.16 24.15 9.73 35.33 15.5l11.16 5.77-1.57-.25c8.21-1.4 15.96-5.39 21.8-11.31 7.69-7.75 11.97-18.8 11.5-29.7-.94-24.9-24.54-42.98-48.83-37.4-3.48.82-7.05 2.17-10.2 3.83-1.05.6-2.29 1.41-3.34 2.02-5.3 3.68-9.86 8.66-12.88 14.38-.97 1.56-1.76 4.02-2.46 5.73-4.22 9.87-4.34 21.02-.53 31.43Z" class="cls-6"/><path d="M166.72 177.68c-19.17-3.69-34.15-1.15-46.23 15.26 6.14-19.98 29.32-25.35 46.23-15.26Z" class="cls-6"/><path d="m150.48 256.24-37.61-19.47-56.24 121.88-.39.98a13.87 13.87 0 0 0 .54 11.43s15.99 8.28 15.99 8.28c2.88-.1 5.62-1.25 7.71-3.23l1.06-1 68.94-118.87Z" style="stroke:#1d1d1b;fill:none;stroke-miterlimit:10;stroke-width:4px"/><path d="m69.3 383.42-13.94-7.21-3.28 12.14 9.3 4.81 7.92-9.74z" style="stroke-width:3px;stroke:#1d1d1b;fill:none;stroke-miterlimit:10"/><path d="m51.33 392.72 7.13 3.69C27.39 454.04.88 404.15.88 404.15s27.82 36.89 50.45-11.43Z" style="stroke-width:2px;stroke:#1d1d1b;fill:none;stroke-miterlimit:10"/><rect width="7.77" height="21.11" x="111.63" y="270.96" class="cls-3" rx="3.89" ry="3.89" transform="rotate(27.24 115.522 281.567)"/><rect width="4.05" height="8.59" x="115.4" y="273.53" rx="2.02" ry="2.02" transform="rotate(27.24 117.423 277.872)"/><path d="M425.11 427.6c-42.97-.09-94.86.52-137.5 1.23-3.46-.11-7.48.61-10.83-.88-5.23-2.04-8.81-7.46-8.67-13.08.01-.37-.05-2.14-.04-2.58-.8-51.12-2.13-119.08-2.4-170.16.04-2.93.18-6.22.59-9.13 4.09-35.11 35.78-62.68 71.11-61.93 5.23 1.42 10.77 2.52 16.19 2.53 5.26.09 10.7-.83 15.81-2.1 29.81-.84 58.24 20.46 66.88 48.8 3.06 9.07 3.5 18.88 3.12 28.32l-.61 37.11c-.64 28.93-.89 64.05-1.2 92.78-.07 9.2-.08 27.91-.14 37.12-.04 6.47-5.83 12.11-12.3 11.97Zm0-.5c6.17.1 11.72-5.29 11.72-11.48v-18.55c-.11-45.54.07-112.25-.17-157.71-.8-21.6-13-42.23-31.4-53.52-10.27-6.53-23.14-10.05-34.88-10.03-2.74.64-5.5 1.35-8.32 1.76-8.27 1.34-17.59.42-25.22-1.72-27.57-.3-53.76 18.49-62.62 44.54-3.14 8.63-3.98 17.77-3.75 26.91 0 38.42-.13 131.09-.09 168.43.07 5.65 4.78 10.69 10.4 11.22 1.85.08 4.91.08 6.84.07 17.57-.03 117.7.11 137.5.09Z"/><path d="M333.41 232.81c1.68 33.51 2.35 67.06 2.73 100.59l.05 4.57c-.16 7.06 1.55 14.25 5.46 20.18 2.76 4.03 6.29 8.89 11.71 8.7 5.4.04 8.98-4.87 11.83-8.83 3.13-4.65 5.02-10.12 5.55-15.72.38-4.89.19-12.93.34-18.05.41-30.5 1.09-60.97 2.63-91.45 1.54 30.48 2.22 60.95 2.63 91.45-.02 5.45.34 13.11.06 18.52-.69 9.84-5.42 19.34-12.69 25.97-5.53 5.35-15.01 5.42-20.65.2-7.26-6.74-11.82-16.32-12.38-26.21.08-36.64.98-73.32 2.73-109.93ZM298.65 142.98c7.49-2.44 15.63-4.39 22.19-8.91 3.73-2.55 7.02-5.85 9.41-9.68 1.1-2.22-.35-5.13-2.69-5.66-.89-.27-1.85-.04-2.73.27-1.14.36-2.54.85-3.68 1.2-13.41 3.66-27.55 3.38-41.14.71l-.96-.2c-4.89-9.46-8.03-19.86-8.92-30.5-.33-3.85-.43-7.72-.16-11.58 2.72-49.53 50.3-85.82 98.79-77.41 83.28 15.6 94.03 128.13 15.27 159.37-28.66 10.91-63.89 4.75-85.37-17.59Zm.48.13c1.74 1.37 4.11 3.03 5.83 4.37 30.04 22.13 75.14 19.05 101.96-6.67C459.5 91.07 425.87 3.8 353.56 1.95c-47.28-.83-83.83 41.51-79 87.86.92 9.72 3.56 19.28 7.87 28.05l-1.43-1.14c13.73 2.81 28.5 3.43 42.07-.61.44-.14 1.07-.31 1.51-.43 7.23-1.82 11.87 6.71 6.66 11.99-7.63 9.86-20.29 13.6-32.11 15.44Z"/><ellipse cx="312.12" cy="62.31" class="cls-3" rx="4.95" ry="10.06" transform="rotate(-9.02 312.155 62.318)"/><path d="M353.55 10.73c25.39 1.33 50.59 15.74 62.6 38.49 5.5 10.18 8.27 21.9 8.51 33.32-1.83-8.97-4.48-17.66-8.35-25.72-11.74-24.7-36.67-40.23-62.76-46.08Z"/><circle cx="310.19" cy="65.01" r="3.07"/></svg>