<svg xmlns="http://www.w3.org/2000/svg" xml:space="preserve" id="Calque_1" x="0" y="0" style="enable-background:new 0 0 438.7 261.6" version="1.1" viewBox="0 0 438.7 261.6"><style>.st0{fill:#ffe600}.st1{fill:none;stroke:#000;stroke-width:2;stroke-miterlimit:10}</style><path d="M223.7 260.1h-68.9l34.3-37.5 34.6-37.5 34.2 37.5 33.3 37.5h-67.5zm137.1-143.5L88.2 240.8c-1.3.6-2.8 0-3.3-1.2-.6-1.3 0-2.8 1.2-3.3l272.5-124.2c1.3-.6 2.8 0 3.3 1.2.7 1.3.1 2.8-1.1 3.3z" class="st0"/><path d="M359.1 116.9c-1.5 0-2.8-1.3-2.8-2.8V94.5c0-1.5 1.3-2.8 2.8-2.8s2.8 1.3 2.8 2.8v19.6c.1 1.5-1.2 2.8-2.8 2.8zM87.5 240.2c-1.5 0-2.8-1.3-2.8-2.8v-19.6c0-1.5 1.3-2.8 2.8-2.8s2.8 1.3 2.8 2.8v19.6c0 1.5-1.3 2.8-2.8 2.8z" class="st0"/><path d="m285.9 67.6 24.2 2.4c32.9 3.2 66 3.2 98.9 0l24.2-2.4-28.9 13.3c-28.4 13-61.1 13-89.5 0l-28.9-13.3zM11 191.9l24.2 2.4c32.9 3.2 66 3.2 98.9 0l24.2-2.4-28.9 13.3c-28.4 13-61.1 13-89.5 0L11 191.9z" class="st0"/><circle cx="359.7" cy="54.3" r="7.9" class="st0"/><path d="M338.8 41.2c13.1-10.1 27.5-10.6 40.4 0-1.8-.3-3.5-.8-5.2-1.3-8.1-2.6-16.6-3.2-24.9-1.2-3.4.8-6.8 1.9-10.3 2.5z" class="st0"/><path d="M332 31.6c3.9-3 8-5.6 12.4-7.6 11.5-5.1 25.6-3.8 35.9 3.4 2 1.3 4 2.7 5.9 4.3-2.4-.4-4.8-1-7.1-1.6-9.8-3-19.9-4-29.9-2.3-5.8 1-11.3 3-17.2 3.8z" class="st0"/><path d="M322.3 22.6c6.5-5.2 13.4-10.4 21.5-13 13-4.4 28-3 39.9 4 4.4 2.5 8.2 5.7 12 9-5.4-1.9-10.5-4.5-15.9-6.2-6.7-2.2-13.7-3.4-20.7-3.3-7 0-14 1.2-20.7 3.5-5.4 1.8-10.6 4.4-16.1 6zM36.7 182.2h6.7v1.7h-6.7v-1.7zm23.5 0h3.3v1.7h-3.3v-1.7zm56.9 0h6.7v1.7h-6.7v-1.7zM103.7 147h-3.3v11.7h-3.3v5h-3.3v3.4h-3.4v13.4h3.3v3.4H87v-10.1h-3.3v-3.4h-3.3v3.4h-3.3v3.4h-3.3v3.4h3.3v3.4h-6.7v-13.4h-3.3v-3.4h-3.4v-3.4h-3.3v-3.4H57V157h-3.3v-20.1H57v6.7h3.1v3.4h3.3v3.4h6.7V147h3.3v-3.4h5v-3.4h5v-3.4h3.3V115H90v-3.3h27.1v3.3h3.3v15.1h-16.7v3.3h10.1v3.4h-13.5v6.7h6.7v6.7h-3.3V147zm1.7 33.5h1.7v1.7h-1.7v-1.7zm-58.6-3.3h6.7v1.7h-6.7v-1.7zm82-1.7h5v1.7h-5v-1.7zm-92.1-5h26.8v1.7H36.7v-1.7zm60.3 0h46.9v1.7H97v-1.7zm-3.3-53.6v3.3H97v-3.3h-3.3z" class="st0"/><circle cx="223.5" cy="176.4" r="8.7" class="st0"/><path d="m220.7 182.1-34.6 37.5-34.3 37.5h136.4l-33.3-37.5-34.2-37.5z" class="st1"/><path d="M356.6 88.7c-1.5 0-2.8 1.3-2.8 2.8v18.4l-126.7 57.8c-1.6-1.9-4-3-6.6-3-4.8 0-8.7 3.9-8.7 8.7 0 .4 0 .8.1 1.2L87.3 231.4v-15.8c0-1.5-1.3-2.8-2.8-2.8s-2.8 1.3-2.8 2.8v19.5c-.1.5 0 1 .2 1.5.4.9 1.4 1.5 2.4 1.4h.2c.7 0 1.4-.3 1.9-.8L214 179.1c1.6 1.9 4 3 6.5 3 4.8 0 8.7-3.9 8.7-8.7 0-.4 0-.8-.1-1.2l128.4-58.5.6-.3.1-.1c.7-.5 1.1-1.3 1-2.2V91.5c.2-1.5-1.1-2.8-2.6-2.8z" class="st1"/><path d="m282.9 64.6 24.2 2.4c32.9 3.2 66 3.2 98.9 0l24.2-2.4-28.9 13.3c-28.4 13-61.1 13-89.5 0l-28.9-13.3zM8 188.9l24.2 2.4c32.9 3.2 66 3.2 98.9 0l24.2-2.4-28.9 13.3c-28.4 13-61.1 13-89.5 0L8 188.9z" class="st1"/></svg>