<?xml version="1.0" encoding="UTF-8"?><svg xmlns="http://www.w3.org/2000/svg" id="Calque_1" data-name="Calque 1" viewBox="0 0 563.75 382.69"><defs><style>.cls-1{fill:#ffe600}.cls-3{fill:#1d1d1b}</style></defs><path d="M12.09 209.95s125.25-50.85 192.11 15.07c29.92 17.65 103.61 17.79 129.88 17.24 6.23-.13 12.31 1.85 17.27 5.62l1.64 1.25c14.19 10.78 14.63 31.96.89 43.32a27.65 27.65 0 0 1-19.35 6.28l-162.91-10.29c-3.22-.2-6.36 1.06-8.54 3.44-3.86 4.21-3.72 10.72.32 14.77l.23.23c1.87 1.87 4.36 2.98 6.99 3.11l175.77 9.2s31.55-5.81 37.67-37.67c24.88-16.86 120.12-53.67 147.7-64.17 4.87-1.85 10.2-1.98 15.15-.36l1.12.37c11.54 3.76 18.1 15.92 14.91 27.63a22.782 22.782 0 0 1-12.39 14.68L294.26 378.52s-7.71 7.25-56.67 2.67c-14.47-1.35-28.49-5.75-41.22-12.75-39.8-21.89-64.35-34.18-73.63-38.72-3.66-1.79-7.56-3-11.6-3.54-12.34-1.64-41.68-2.64-99.05 9.37V209.96Z" class="cls-1"/><path d="m283.15 220.03 90.94-120.79c14-18.6 9.43-45.16-9.99-58a40.399 40.399 0 0 0-44.35-.16l-29.88 19.47a12.332 12.332 0 0 1-13.45 0l-29.88-19.47a40.399 40.399 0 0 0-44.35.16c-19.42 12.85-23.99 39.4-9.99 58l90.94 120.79ZM441.79 226.55l40.09-81.15c6.17-12.5.53-27.61-12.31-33.01a24.187 24.187 0 0 0-26.11 4.83l-15.41 14.77a7.358 7.358 0 0 1-7.91 1.49l-19.74-8.13a24.19 24.19 0 0 0-26.07 5.02c-10 9.71-9.74 25.84.56 35.23l66.91 60.96ZM432.47 78.19l44.91-25.43c6.92-3.92 9.1-12.85 4.77-19.52-2.99-4.61-8.44-7-13.86-6.09l-12 2.03c-1.64.28-3.29-.44-4.21-1.83l-6.7-10.16a13.795 13.795 0 0 0-13.9-5.99c-7.83 1.38-12.87 9.07-11.02 16.8l12.02 50.19Z" class="cls-1"/><path d="M1.5 199.35s125.25-50.85 192.11 15.07c29.92 17.65 103.61 17.79 129.88 17.24 6.23-.13 12.31 1.85 17.27 5.62l1.64 1.25c14.19 10.78 14.63 31.96.89 43.32a27.65 27.65 0 0 1-19.35 6.28l-162.91-10.29c-3.22-.2-6.36 1.06-8.54 3.44-3.86 4.21-3.72 10.72.32 14.77l.23.23c1.87 1.87 4.36 2.98 6.99 3.11l175.77 9.2s31.55-5.81 37.67-37.67c24.88-16.86 120.12-53.67 147.7-64.17 4.87-1.85 10.2-1.98 15.15-.36l1.12.37c11.54 3.76 18.1 15.92 14.91 27.63a22.782 22.782 0 0 1-12.39 14.68L283.67 367.92s-7.71 7.25-56.67 2.67c-14.47-1.35-28.49-5.75-41.22-12.75-39.8-21.89-64.35-34.18-73.63-38.72-3.66-1.79-7.56-3-11.6-3.54-12.34-1.64-41.68-2.64-99.05 9.37V199.36Z" style="fill:none;stroke:#1d1d1b;stroke-miterlimit:10;stroke-width:3px"/><path d="m272.55 209.44 91.22-123.27c3.42-5.17 5.69-11.13 6.32-17.3 2.37-18.7-10.41-37.67-28.75-42.21-8.94-2.45-18.74-1.47-27.06 2.58-2.8 1.33-5.44 3.17-8.05 4.86l-16.05 10.5-8.02 5.25c-2.82 2.03-6.04 3.68-9.61 3.61-3.55.09-6.81-1.58-9.61-3.6l-8.02-5.25-16.05-10.5c-2.6-1.69-5.24-3.52-8.05-4.86-8.32-4.05-18.12-5.03-27.06-2.58-18.33 4.54-31.13 23.5-28.75 42.21.63 6.17 2.89 12.13 6.31 17.3l91.22 123.27Zm0 0c-25.6-33.66-65.15-84.78-90.28-118.04-5.11-6.39-8.87-14.02-9.75-22.24-3.84-32.49 30.05-56.71 59.53-42.46 1.26.6 3.13 1.64 4.34 2.4 2.57 1.65 17.25 11.17 20.13 13.04l8.04 5.22c2.35 1.66 5.02 3.18 7.99 3.09 2.95.1 5.66-1.44 7.99-3.09l8.04-5.22c2.89-1.86 17.45-11.35 20.13-13.04 4.18-2.63 8.87-4.56 13.7-5.62 27.72-6.03 53.6 17.51 50.17 45.68-.88 8.22-4.64 15.85-9.75 22.24-25.09 33.01-64.71 84.7-90.28 118.04ZM431.2 215.95l39.91-82.67c1.43-3.41 2.1-7.16 1.78-10.84-.69-11.22-10.27-20.92-21.52-21.55-6.44-.53-13 1.85-17.68 6.27l-2.07 1.98-8.27 7.96-4.14 3.98c-1.43 1.51-3.2 2.87-5.3 3.22-2.09.45-4.23-.17-6.11-1.06l-5.3-2.2-10.61-4.4-2.65-1.09c-5.97-2.42-12.95-2.24-18.75.6-10.24 4.69-15.65 17.21-12.18 27.91 1.05 3.55 3.03 6.79 5.61 9.45l67.29 62.44Zm0 0c-19.79-17.76-49.04-43.65-68.39-61.36-15.84-15.94-3.99-43.06 18.41-42.59 3.91.04 7.83 1.3 11.38 2.87l10.62 4.35 5.31 2.18c1.54.71 3.28 1.3 4.99.93 1.72-.26 3.13-1.46 4.31-2.68l4.15-3.96 8.31-7.93c2.73-2.75 5.92-5.36 9.55-6.83 20.67-8.6 41.61 12.32 32.67 32.95-11.5 23.44-29.43 58.45-41.31 82.07ZM421.88 67.6l45.34-26.16c3.6-2.28 5.9-6.35 6.11-10.59.46-9.18-8.25-15.87-17.04-13.56l-6.45 1.1-3.23.55c-1.15.25-2.4.33-3.49-.18-1.12-.45-1.91-1.42-2.51-2.43l-1.8-2.74-3.59-5.47c-4.29-8-15.16-9.82-21.54-3.22-2.95 3.05-4.37 7.5-3.58 11.69l11.78 51.01Zm0 0-6.29-25.31c-2.08-8.5-4.23-16.98-6.25-25.56-.41-2.2-.33-4.51.33-6.66 3.83-12.25 20.18-13.63 26.34-2.47l3.61 5.46 1.81 2.73c.51.84 1.15 1.69 2.08 2.06.91.43 1.97.32 2.93.12l3.23-.54 6.46-1.08c12.34-3.11 22.5 9.81 16.15 20.95-1.12 1.95-2.76 3.59-4.65 4.79-13.24 7.59-32.28 17.97-45.76 25.51Z" class="cls-3"/></svg>