<?xml version="1.0" encoding="UTF-8"?><svg xmlns="http://www.w3.org/2000/svg" id="Calque_1" data-name="Calque 1" viewBox="0 0 469.98 490"><defs><style>.cls-1{fill:#ffe600}.cls-2{fill:none;stroke:#020202;stroke-miterlimit:10;stroke-width:3px}</style></defs><path d="m10.71 263.24 43.43 18.13V193.4h38.28l22.16 16.12v90.66h16.12V174.6h-15.45l33.58-98.04 38.28 97.37h-10.07v126.25h10.07v60.44h13.43V206.16l-16.12-13.43 55.96-87.97 56.86 86.63-14.77 14.1v155.13h14.77v-55.07h12.09V173.93l-14.77.67 38.28-98.04 36.26 99.39h-17.46l1.34 122.89h10.07v-91.33l28.88-16.12h36.93v87.3l41.13-13.42C469.99 392.11 367.22 490 240.38 490S10.71 390.08 10.71 263.24Z" class="cls-1"/><path d="M244.04 20.51h-30.56s-11.08 3.02-11.75 14.44v41.97s4.37-10.07 14.44-10.07 27.87.67 27.87.67V20.51Z" class="cls-1"/><path d="M320.56 36.63c82.43 34.87 140.27 116.49 140.27 211.62 0 126.84-102.83 229.67-229.67 229.67S1.5 375.09 1.5 248.25c0-82.92 43.94-155.58 109.81-195.95" class="cls-2"/><path d="m1.5 251.16 43.43 18.13v-87.97H83.2l22.16 16.11v90.66h16.12V162.51h-15.44l33.57-98.04 38.28 97.37h-10.07v126.25h10.07v60.44h13.43V194.07l-16.12-13.43 55.97-87.97 56.85 86.63-14.77 14.1v155.13h14.77v-55.07h12.09V161.84l-14.77.67 38.28-98.04 36.26 99.39h-17.46l1.34 122.89h10.07v-91.33l28.88-16.12h36.94v87.3l41.13-13.41M231.17 92.67V0" class="cls-2"/><path d="M231.95 8.06h-30.56s-11.08 3.02-11.75 14.44v41.97s4.37-10.07 14.44-10.07 27.87.67 27.87.67V8.06ZM83.2 181.32v128.93M143.64 165.87v116.85M143.64 295.48v116.85M231.17 161.17l-31.12 84.61h63.13l-32.01-84.61zM210.8 245.78V353.9l-19.48-5.37M254.81 353.9ZM254.81 353.9l18.44-5.37M382.71 179.3v129.38M320.71 165.87v116.85M320.71 295.48v116.85" class="cls-2"/></svg>