<?xml version="1.0" encoding="UTF-8"?><svg xmlns="http://www.w3.org/2000/svg" id="Calque_1" data-name="Calque 1" viewBox="0 0 340.77 538"><defs><style>.cls-1{fill:#ffe600}.cls-2{stroke-width:3px}.cls-2{fill:none;stroke:#1d1d1b;stroke-miterlimit:10}.cls-5{fill:#1d1d1b}</style></defs><path d="m276.31 363.73 28.9 104.02-23.47 70.24h27.58l31.45-65.79s-12-84.91-19.56-115.13c-7.43-29.73-31.53-32.96-33.17-33.69-.05-.02-.09-.04-.15-.05-55.51-11.76-85.27-5.82-85.27-5.82l-5.84 2.9c-14.97 7.44-32.51 7.66-47.66.6l-7.51-3.5s-56.46-4-86.24 4.45c0 0-25.78 3.11-32.01 35.56C17.14 389.97 6.47 461.1 6.47 461.1l45.9 76.9h26.12l-36.01-74.68L73.6 363.3" class="cls-1"/><path d="m279.32 361.42-14.46 135.8 16.87 40.77H78.49l12.85-44.36-21.25-132.21M213.35 12.6C131.56-1.62 100 29.5 101.78 49.95c0 0-53.12 28.47-12.22 145.37.89-35.79 5.56-51.57 13.56-62.69-3.78-20.45 1.33-46.9 34.45-46.01 34.23 20.67 73.13 25.34 110.47 4.89 15.11 26.67 10.22 104.69 10.22 103.8 0 0 35.23-49.79 8.89-136.81-13.34-37.34-53.79-45.9-53.79-45.9Z" class="cls-1"/><path d="M258.25 195.31s4.89 75.24-84.63 108.58C78.1 260.55 89.55 195.32 89.55 195.32l-.43-105.98 64.27-21.95 99.35 8.17 10.67 71.79-5.17 47.96h.01Z" class="cls-1"/><path d="M205.85 5.1C124.06-9.12 92.5 21.99 94.27 42.44c0 0-53.12 28.47-12.22 145.37.89-35.79 5.56-51.57 13.56-62.69-3.78-20.45 1.33-46.9 34.45-46.01 34.23 20.67 73.13 25.34 110.47 4.89 15.11 26.67 10.22 104.69 10.22 103.8 0 0 35.23-49.79 8.89-136.81C246.31 13.66 205.85 5.1 205.85 5.1Z" class="cls-2"/><circle cx="129.67" cy="172.08" r="8.17" class="cls-5"/><circle cx="203.91" cy="172.08" r="8.17" class="cls-5"/><path d="M82.05 187.81s-11.45 65.23 84.07 108.57c89.52-33.34 84.63-108.58 84.63-108.58" class="cls-2"/><path d="M271.08 356.23c.05.16 29.43 103.89 29.47 104.03-.04.16-23.2 70.32-23.24 70.49l-.8-1.11 27.58-.1-.85.54c-.07.55 32.06-68.29 31.17-65.23-5.05-33.82-10.12-67.7-16.69-101.26-.93-4.44-2.29-11-3.48-15.31-4.24-15.89-15.6-27.5-31.77-31.07-24.86-5.16-51.38-8.63-77.11-6.72-2.58.21-5.22.51-7.67.94l.36-.12c-2.42 1.18-4.73 2.4-7.23 3.55-8.69 4.06-18.46 5.85-28.02 5.09-6.84-.48-13.57-2.34-19.78-5.22l-7.26-3.39c-11.45-.46-29.14-1.21-42.65-.66-14.27.5-28.79 1.4-42.59 5.11-16.05 2.75-27.41 16.86-30.6 32.33-1.94 9.47-3.56 19.16-5.19 28.69-4.07 22.28-8.57 54.32-12.29 76.96l-.16-.8L47.96 530l-.82-.47 26.12.09-.78 1.24-17.9-37.39-17.81-37.43-.09-.19.06-.2 31.63-99.86c.33-.34-31.05 101.66-30.63 99.79 9.14 18.51 27.26 55.98 36.31 74.54l.6 1.24h-1.38l-26.12.09h-.54l-.28-.47C46.17 530.54.15 454.23 0 453.84c4.8-32.29 9.77-64.54 15.46-96.69.49-2.75 1.25-6.93 1.85-9.63 3.49-16.89 15.83-31.47 32.47-34.41 14.14-3.82 28.73-4.75 43.26-5.29 14.66-.34 29.39-.35 43.98.85 4.31 1.95 10.07 4.92 14.55 6.16 4.97 1.53 10.16 2.28 15.36 2.31 5.2.07 10.39-.75 15.38-2.18 5.08-1.47 9.7-3.91 14.45-6.26l.2-.1c2.78-.49 5.46-.77 8.17-1 18.49-1.39 37.15.11 55.45 2.82 5.15.75 10.52 1.7 15.63 2.7 5.15 1.01 10.5 2.01 15.49 4.22 16.36 7.18 23.77 21.09 27 37.97 3.28 15.36 6.02 31.23 8.55 46.69 3.44 20.92 6.52 41.88 9.48 62.87.02.36-31.74 65.65-31.78 66.01l-.26.54h-.59l-27.58-.1h-1.18l.38-1.11 23.75-70.14c.41 1.76-28.56-104.32-28.38-103.85h-.01Z" class="cls-5"/><path d="m137.84 236.23 26.4 5.13c2.46.48 5 .26 7.35-.63l27.38-10.37-20.73 21.44c-4.73 4.89-12.36 5.49-17.8 1.41l-22.6-16.99Z" style="stroke-width:2px;fill:none;stroke:#1d1d1b;stroke-miterlimit:10"/><path d="M274.1 367.08c-3.58 33.98-9.49 93.17-13.45 125.23l8.55 18.81c.27.44 9.32 20.79 9.32 20.65h-2c-51.58.17-153.44.21-205.01 0l.53-1.68c3.27-10.24 9.74-30.78 13.05-40.99-.06 2.6-10.13-61.32-10.26-60.73-2.46-15.24-7.53-46.04-9.95-61.29l5.68 30.53c3.53 19.52 13.34 71.93 16.62 92.16-3.09 10.24-9.5 30.89-12.66 41.11l-1.24-1.68c50.66-.21 152.6-.18 203.24 0l-1.18 1.82c-4.23-9.43-12.53-28.37-16.69-37.81 3.84-35.69 11.06-90.8 15.46-126.13h-.01ZM150.9 223.13c1.55 2.61 4.05 5.21 7.21 5.38 6.78.03 10.2-8.13 4.34-12.24-2.39-1.7-5.64-1.57-8.62-1.12-3.02.44-5.58 2.12-8.35 3.78-2.77 1.68-5.78 3.11-8.9 4.05-6.26 1.94-12.73 2.56-19.14 2.84l.12-1.73c8.77 1.58 25.97 4.82 33.34-.98v.02Zm0 0c-4.19 3.98-10.95 4.12-16.43 4.37-8.09.07-16.82-1.64-24.83-2.88 11.79-.85 24.53-1 34.84-7.36 3.45-2.2 7.29-4.17 11.53-4.13l1.24-.04 1.28.11c.85.05 1.71.31 2.52.54 2.45.91 4.58 2.86 5.36 5.41 1.86 5.25-3.04 10.61-8.36 10.06-3.38-.41-5.79-3.2-7.16-6.08Z" class="cls-5"/><path d="M181.72 221c-1.07 3.39-3.65 6.89-7.5 7.11-2.93.06-6.01-1.2-7.54-3.85-2.73-4.7.81-10.29 5.54-11.87 3.35-1.11 7.14-1.29 10.5-.18 4.49 1.56 8.84 3.1 13.6 3.36 6.15.56 12.61-.14 18.74-.91l5.33-.64-4.79 2.29c-7.93 3.87-16.54 7.52-25.51 7.3-2.91-.13-6.11-.65-8.36-2.62h-.01Zm0 0c7.97 5.05 21.4-.58 29.15-4.26l3.91-1.98.54 1.65c-6.3.98-12.71 1.69-19.18 1.15-3.22-.24-6.46-.91-9.52-1.96-3.84-1.34-7.22-2.87-11.11-2.18-.67.05-1.55.26-2.2.44l-.54.14-.51.22c-3.74 1.25-6.5 5.71-4.53 9.46 1.19 2.31 3.92 3.55 6.45 3.67 3.61 0 6.2-3.25 7.52-6.35h.02ZM98.28 43c12.98 4.56 24.06 16.1 29.34 28.67-1.24-1.27-2.29-2.63-3.46-3.91-7.83-9.1-16.34-17.43-25.88-24.76Z" class="cls-5"/><path d="m129.67 309.62 36.75 51.11 41.21-51.11" style="fill:none;stroke:#1d1d1b;stroke-miterlimit:10"/></svg>