<?xml version="1.0" encoding="UTF-8"?><svg xmlns="http://www.w3.org/2000/svg" id="Calque_1" data-name="Calque 1" viewBox="0 0 537.27 392.53"><defs><style>.cls-3{fill:#ffe600}</style></defs><path d="m340.29 239.94 42.22-12.72v-44.25s-14.24-4.07-43.23-14.24c-2.03-15.26-15.77-40.69-15.77-40.69l18.31-40.69-30.52-31.03s-24.41 13.22-40.18 20.85c-7.63-11.7-40.18-19.33-40.18-19.33L216.7 16.13h-44.25s-5.59 21.87-11.7 43.23c-25.94 5.59-40.69 17.29-40.69 17.29L78.35 54.27 46.82 85.8l20.34 39.48c-15.77 22.7-16.28 43.93-16.28 43.93L7.14 181.42v45.27s16.28 4.07 42.72 12.72c2.03 21.36 16.78 43.23 16.78 43.23L46.8 321.29l31.03 30.52s23.9-11.19 39.67-20.34c12.72 9.66 42.72 18.82 42.72 18.82l12.72 42.22h44.76s6.1-21.87 12.72-44.25c20.85-2.54 41.71-16.28 41.71-16.28l40.18 19.84 30.01-31.53s-9.66-20.85-20.85-38.65c15.26-11.7 18.82-41.71 18.82-41.71Zm-145.52 63.72c-54.67 0-98.98-44.32-98.98-98.98s44.32-98.98 98.98-98.98 98.98 44.32 98.98 98.98-44.32 98.98-98.98 98.98Z" class="cls-3"/><path d="m335.14 229.64 42.22-12.72v-44.25s-14.24-4.07-43.23-14.24c-2.03-15.26-15.77-40.69-15.77-40.69l18.31-40.69-30.52-31.03s-24.41 13.22-40.18 20.85c-7.63-11.7-40.18-19.33-40.18-19.33L211.55 5.83H167.3s-5.59 21.87-11.7 43.23c-25.94 5.59-40.69 17.29-40.69 17.29L73.2 43.97 41.67 75.5l20.34 39.48c-15.77 22.7-16.28 43.93-16.28 43.93L2 171.15v45.27s16.28 4.07 42.72 12.72c2.03 21.36 16.78 43.23 16.78 43.23l-19.84 38.65 31.03 30.52s23.9-11.19 39.67-20.34c12.72 9.66 42.72 18.82 42.72 18.82l12.72 42.22h44.76s6.1-21.87 12.72-44.25c20.85-2.54 41.71-16.28 41.71-16.28l40.18 19.84 30.01-31.53s-9.66-20.85-20.85-38.65c15.26-11.7 18.82-41.71 18.82-41.71Zm-145.52 63.72c-54.67 0-98.98-44.32-98.98-98.98s44.32-98.98 98.98-98.98 98.98 44.32 98.98 98.98-44.32 98.98-98.98 98.98Z" style="fill:none;stroke:#000;stroke-miterlimit:10;stroke-width:4px"/><path d="m506.22 140.91 21.74 1.79 8.01-20.37s-5.82-4.45-17.33-14.38c1.83-7.39.11-21.59.11-21.59l15.8-15.42-8.43-19.81s-13.63 1.67-22.27 2.33c-1.39-6.77-15-16.17-15-16.17l.99-21.78-20.37-8.01s-6.54 9.06-13.21 17.79c-12.96-2.12-21.86.6-21.86.6L419.25 8.04l-20.23 8.81 2.22 21.86c-11.37 7.6-15.45 17.28-15.45 17.28l-22.35-2.3-8.2 20.84s6.76 4.82 17.37 13.59c-2.93 10.2-.1 22.94-.1 22.94l-16.13 14.21 8.76 19.67s13.03-.82 21.95-2.18c4.1 6.75 16.26 16.4 16.26 16.4l-1.79 21.74 20.61 8.1s6.77-8.96 13.87-18.07c10.06 2.6 22.15.06 22.15.06l14.91 16.41 19.52-9.09s-.67-11.35-2.6-21.57c9.14-2.62 16.21-15.79 16.21-15.79Zm-78.53 2.99c-25.17-9.9-37.55-38.32-27.65-63.49 9.9-25.17 38.32-37.55 63.49-27.65 25.17 9.9 37.55 38.32 27.65 63.49-9.9 25.17-38.32 37.55-63.49 27.65Z" class="cls-3"/><path d="m505.72 135.24 21.74 1.79 8.01-20.37s-5.82-4.45-17.33-14.38c1.83-7.39.11-21.59.11-21.59l15.8-15.42-8.43-19.81s-13.63 1.67-22.27 2.33c-1.39-6.77-15-16.17-15-16.17l.99-21.78-20.37-8.01s-6.54 9.06-13.21 17.79c-12.96-2.12-21.86.6-21.86.6L418.75 2.37l-20.23 8.81 2.22 21.86c-11.37 7.6-15.45 17.28-15.45 17.28l-22.35-2.3-8.2 20.84s6.76 4.82 17.37 13.59c-2.93 10.2-.1 22.94-.1 22.94l-16.13 14.21 8.76 19.67s13.03-.82 21.95-2.18c4.1 6.75 16.26 16.4 16.26 16.4l-1.79 21.74 20.61 8.1s6.77-8.96 13.87-18.07c10.06 2.6 22.15.06 22.15.06l14.91 16.41 19.52-9.09s-.67-11.35-2.6-21.57c9.14-2.62 16.21-15.79 16.21-15.79Zm-78.53 2.99c-25.17-9.9-37.55-38.32-27.65-63.49 9.9-25.17 38.32-37.55 63.49-27.65 25.17 9.9 37.55 38.32 27.65 63.49-9.9 25.17-38.32 37.55-63.49 27.65Z" style="stroke-width:3px;fill:none;stroke:#000;stroke-miterlimit:10"/></svg>