<?xml version="1.0" encoding="UTF-8"?><svg xmlns="http://www.w3.org/2000/svg" id="Calque_2" data-name="Calque 2" viewBox="0 0 326.25 346.5"><defs><style>.cls-1{fill:#ffe600}.cls-4{fill:#1d1d1b}</style></defs><path d="M166.74 109.44c-62.05 0-74.29 62.86-48.57 102.86 17.86 25.71 15 45.71 15 45.71h67.14s-2.86-20 15-45.71c25.71-40 11.25-101.85-48.57-102.86ZM191.21 299.51H144.4s-1.1 20.15 22.12 20.15c24.7 0 24.7-20.15 24.7-20.15ZM160.37 87.63c-1.2-9.46-1.42-19.35-1.5-28.89.07-9.54.29-19.42 1.5-28.89 1.21 9.46 1.43 19.35 1.5 28.89-.08 9.54-.3 19.42-1.5 28.89ZM82.2 177.44c-9.45 1.29-19.34 1.6-28.87 1.76-9.54.02-19.42-.11-28.9-1.23 9.45-1.29 19.34-1.61 28.87-1.76 9.54-.01 19.42.12 28.9 1.23ZM298.32 176.9c-9.45 1.29-19.34 1.6-28.87 1.76-9.54.02-19.42-.11-28.9-1.23 9.45-1.29 19.34-1.61 28.87-1.76 9.54-.01 19.42.12 28.9 1.23ZM226.37 228.24c10.47 5.39 19.97 12.61 27.93 21.29-10.48-5.38-19.95-12.62-27.93-21.29ZM227.37 104.89c7.97-8.67 17.45-15.91 27.93-21.29-7.96 8.68-17.46 15.9-27.93 21.29ZM95.17 225.24a100.124 100.124 0 0 1-27.93 21.29c7.96-8.68 17.46-15.9 27.93-21.29ZM94.17 106.89C83.7 101.5 74.2 94.28 66.24 85.6c10.48 5.38 19.95 12.62 27.93 21.29Z" class="cls-1"/><path d="M157.32 100.96c-62.05 0-74.29 62.86-48.57 102.86 17.86 25.71 15 45.71 15 45.71h67.14s-2.86-20 15-45.71c25.71-40 11.25-101.85-48.57-102.86Z" style="fill:none;stroke:#1d1d1b;stroke-miterlimit:10;stroke-width:5px"/><path d="M190.37 264.88c-18.62 5.75-45.95 5.72-64.59 0v-.5c14.78-.24 33.6-.28 48.44-.17 4.01 0 12.13.09 16.15.17v.5ZM185.63 280.88c-15.64 5.75-38.86 5.71-54.52 0v-.5l6.81-.12c9.78-.08 24.26-.16 34.07-.04 3.39 0 10.24.09 13.63.17v.5Z" class="cls-4"/><path d="M181.78 296.03h-46.81s-1.1 20.15 22.12 20.15c24.7 0 24.7-20.15 24.7-20.15Z" style="stroke-width:3px;fill:none;stroke:#1d1d1b;stroke-miterlimit:10"/><path d="M156.49 114.7c-17.56 4.81-32.53 16.53-38.54 34.02-2.44 6.64-3.65 13.59-4.53 20.79a54.26 54.26 0 0 1 .75-19.41c4.11-20 21.96-34.86 42.32-35.41ZM158.08 83.44c-1.97-9.56-2.44-19.2-2.5-28.89.05-9.69.51-19.33 2.5-28.89 1.99 9.56 2.45 19.2 2.5 28.89-.06 9.69-.52 19.33-2.5 28.89ZM78.92 175.24c-4.81 1.08-9.61 1.66-14.43 2.09-4.81.41-9.62.63-14.44.67-4.81.05-9.63-.08-14.45-.4-4.82-.34-9.64-.84-14.46-1.83 4.81-1.09 9.61-1.67 14.43-2.1 4.81-.41 9.62-.63 14.44-.67 4.81-.04 9.63.09 14.45.41 4.82.34 9.64.84 14.46 1.83ZM293.03 174.71c-4.81 1.08-9.61 1.66-14.43 2.09-4.81.41-9.62.63-14.44.67-4.81.05-9.63-.08-14.45-.4-4.82-.34-9.64-.84-14.46-1.83 4.81-1.09 9.61-1.67 14.43-2.1 4.81-.41 9.62-.63 14.44-.67 4.81-.04 9.63.09 14.45.41 4.82.34 9.64.84 14.46 1.83ZM224.08 223.04c10.45 3.71 21.59 12.18 27.93 21.29-10.46-3.69-21.58-12.19-27.93-21.29ZM224.08 101.7c6.35-9.1 17.46-17.6 27.93-21.29-6.33 9.11-17.47 17.58-27.93 21.29ZM92.88 223.04c-6.35 9.1-17.46 17.6-27.93 21.29 6.33-9.11 17.47-17.58 27.93-21.29ZM92.88 101.7c-10.45-3.71-21.59-12.18-27.93-21.29C75.41 84.1 86.53 92.6 92.88 101.7Z" class="cls-4"/><path d="M204.25 246.44h-64.6M199.51 262.44h-54.52" class="cls-1"/></svg>