<?xml version="1.0" encoding="UTF-8"?><svg xmlns="http://www.w3.org/2000/svg" id="Calque_1" data-name="Calque 1" viewBox="0 0 428.79 483.67"><defs><style>.cls-2{fill:#ffe600}.cls-3{fill:none;stroke:#1d1d1b;stroke-miterlimit:10}.cls-4{fill:#1d1d1b}</style></defs><path d="M255.95 36.71 385.5 123.9" style="fill:#fff"/><path d="M255.95 36.71c44.5 26.65 88.12 55.99 129.55 87.19-44.51-26.63-88.11-56-129.55-87.19Z" class="cls-4"/><circle cx="240.72" cy="32.93" r="22.27" class="cls-2"/><circle cx="406.53" cy="144.53" r="22.27" class="cls-2"/><circle cx="208.47" cy="89.9" r="21.26" class="cls-2"/><circle cx="371.6" cy="199.7" r="21.26" class="cls-2"/><circle cx="182.57" cy="149.93" r="18.48" class="cls-2"/><circle cx="320.71" cy="242.91" r="18.48" class="cls-2"/><circle cx="218.34" cy="245.9" r="18.48" class="cls-2"/><circle cx="27.85" cy="349.21" r="22.27" class="cls-2"/><circle cx="194.55" cy="461.4" r="22.27" class="cls-2"/><circle cx="68.49" cy="297.89" r="21.26" class="cls-2"/><circle cx="228.05" cy="405.28" r="21.26" class="cls-2"/><circle cx="114.35" cy="251.29" r="18.48" class="cls-2"/><circle cx="252.49" cy="344.27" r="18.48" class="cls-2"/><path d="m226.11 101.78 76.74 51.64M197.89 160.25l107.5 72.34M129.67 261.61l107.5 72.34M86.13 309.76l123.72 83.27M175.87 448.83l-80.1-53.91" class="cls-2"/><circle cx="70.99" cy="374.65" r="7.33" class="cls-2"/><circle cx="326.62" cy="168.82" r="7.33" class="cls-2"/><path d="M255.95 36.71c-8.81 13.34-28.96 13.93-38.48.84-12.92-17.83 3.36-42.07 24.77-36.81 15.72 3.89 22.75 22.79 13.71 35.98Zm0 0c10.66-16.06-3.76-36.55-22.33-32.16-10.45 2.35-17.63 13.02-15.89 23.59 2.93 18.87 27.35 24.5 38.21 8.57ZM384.81 123.44c-10.66 16.07 3.75 36.57 22.33 32.17 10.45-2.36 17.63-13.03 15.87-23.6-2.93-18.86-27.33-24.5-38.2-8.58Zm0 0c8.81-13.34 28.97-13.94 38.49-.84 12.93 17.86-3.4 42.07-24.78 36.81-15.71-3.89-22.75-22.78-13.71-35.96ZM222.87 93.11c-8.42 12.75-27.68 13.34-36.81.84-12.46-17.05 3.26-40.4 23.74-35.28 15.02 3.75 21.72 21.83 13.07 34.43Zm0 0c10.16-15.32-3.61-34.84-21.3-30.62-9.92 2.26-16.73 12.37-15.09 22.41 2.75 18 26.03 23.39 36.4 8.21ZM350.72 179.16c-10.17 15.32 3.6 34.86 21.31 30.63 9.92-2.27 16.72-12.38 15.08-22.42-2.75-17.98-26.02-23.39-36.39-8.21Zm0 0c8.42-12.75 27.69-13.36 36.82-.85 12.46 17.05-3.27 40.39-23.75 35.27-15.02-3.75-21.72-21.82-13.08-34.42ZM194.65 151.59c-7.29 11.1-24.17 11.71-32.17.86-11.09-14.98 2.81-35.64 20.86-31 13.07 3.33 18.86 19.21 11.31 30.14Zm0 0c8.81-13.22-3.23-30.12-18.46-26.32-13.8 3.4-17.73 21.44-6.49 30.3 7.55 6.18 19.61 4.27 24.95-3.98ZM302.14 223.93c-8.81 13.22 3.22 30.14 18.46 26.34 13.8-3.41 17.7-21.44 6.48-30.31-7.55-6.19-19.61-4.28-24.94 3.97Zm0 0c7.29-11.1 24.18-11.72 32.19-.87 11.1 14.98-2.82 35.64-20.87 31-13.06-3.33-18.86-19.2-11.32-30.13Z" class="cls-4"/><circle cx="215.09" cy="237.24" r="18.48" class="cls-3"/><path d="M43.08 352.98c10.66-16.07-3.75-36.57-22.33-32.17-10.45 2.36-17.63 13.03-15.87 23.6 2.93 18.86 27.33 24.5 38.2 8.58Zm0 0c-8.81 13.34-28.97 13.94-38.49.84-12.93-17.86 3.4-42.07 24.78-36.81 15.71 3.89 22.75 22.78 13.71 35.96ZM172.84 440.31c8.81-13.34 28.96-13.93 38.48-.84 12.92 17.83-3.36 42.07-24.77 36.81-15.72-3.89-22.75-22.79-13.71-35.98Zm0 0c-10.66 16.06 3.76 36.55 22.33 32.16 10.45-2.35 17.63-13.02 15.89-23.59-2.93-18.87-27.35-24.5-38.21-8.57ZM82.89 301.1c10.17-15.32-3.6-34.86-21.31-30.63-9.92 2.27-16.72 12.38-15.08 22.42 2.75 17.98 26.02 23.39 36.39 8.21Zm0 0c-8.42 12.75-27.69 13.36-36.82.85-12.46-17.05 3.27-40.39 23.75-35.27 15.02 3.75 21.72 21.82 13.08 34.42ZM207.17 384.75c8.42-12.75 27.68-13.34 36.81-.84 12.46 17.05-3.26 40.4-23.74 35.28-15.02-3.75-21.72-21.83-13.07-34.43Zm0 0c-10.16 15.32 3.61 34.84 21.3 30.62 9.92-2.26 16.73-12.37 15.09-22.41-2.75-18-26.03-23.39-36.4-8.21ZM126.43 252.94c8.81-13.22-3.22-30.14-18.46-26.34-13.8 3.41-17.7 21.44-6.48 30.31 7.55 6.19 19.61 4.28 24.94-3.97Zm0 0c-7.29 11.1-24.18 11.72-32.19.87-11.1-14.98 2.82-35.64 20.87-31 13.06 3.33 18.86 19.2 11.32 30.13ZM233.92 325.29c7.29-11.1 24.17-11.71 32.17-.86 11.09 14.98-2.81 35.64-20.86 31-13.07-3.33-18.86-19.21-11.31-30.14Zm0 0c-8.81 13.22 3.23 30.12 18.46 26.32 13.8-3.4 17.73-21.44 6.49-30.3-7.55-6.18-19.61-4.27-24.95 3.98ZM222.87 93.11c13.47 7.14 26.78 15.73 39.48 24.17 12.61 8.6 25.57 17.68 37.25 27.48-13.47-7.13-26.78-15.73-39.48-24.17-12.6-8.6-25.56-17.69-37.25-27.48ZM194.65 151.59c18.52 10.53 37.1 22.68 54.86 34.52 17.67 12 35.89 24.62 52.63 37.83-18.52-10.53-37.1-22.67-54.86-34.52-17.66-12.01-35.89-24.63-52.63-37.83Z" class="cls-4"/><path d="M126.43 252.94c18.52 10.53 37.1 22.68 54.86 34.52 17.67 12 35.89 24.62 52.63 37.83-18.52-10.53-37.1-22.67-54.86-34.52-17.66-12.01-35.89-24.63-52.63-37.83ZM82.89 301.1c21.18 12.33 42.54 26.34 62.97 39.98 20.33 13.8 41.34 28.29 60.74 43.29-21.19-12.32-42.55-26.34-62.97-39.98-20.33-13.8-41.33-28.3-60.74-43.29ZM172.63 440.17c-14.02-7.51-27.91-16.49-41.17-25.3-13.16-8.97-26.7-18.44-38.93-28.61 14.02 7.5 27.91 16.49 41.17 25.3 13.16 8.98 26.69 18.45 38.93 28.61Z" class="cls-4"/><circle cx="67.75" cy="365.99" r="7.33" class="cls-3"/><circle cx="323.38" cy="160.16" r="7.33" class="cls-3"/></svg>