<?xml version="1.0" encoding="UTF-8"?><svg xmlns="http://www.w3.org/2000/svg" data-name="Calque 2" viewBox="0 0 487.86 372.51"><path d="M296.14 336.83s3.93-26.01 1.84-50.1c-1.43-16.53 10.61-31.01 27.11-32.83 18.91-2.08 42.12-9.79 64.75-30.69 2.67-2.46 4.85-5.42 6.43-8.68 21.16-43.64 10.46-74.04-2.84-84.48-4.07-3.19-7.15-7.44-9.14-12.22-7.88-18.92-38.9-50.09-70.31-51.92-6.63-.39-12.99-2.9-17.99-7.27-15.3-13.35-38.51-16.1-58.16-11.62-5.14 1.17-10.52 1.07-15.58-.4-21.85-6.34-79.71-3.31-101.53 30.26-3.23 4.96-7.94 8.83-13.42 11.08-24.26 9.98-35.18 33.43-35.54 52.7-.11 5.69-1.58 11.31-4.7 16.07-13.96 21.28-5.45 73.99 58.77 71.25 6.34-.27 12.54 1.61 17.88 5.05 16.5 10.6 37.87 6.46 48.03 3.49 1.19-.35 2.36-.78 3.5-1.26a86.713 86.713 0 0 1 17.69-5.29c12.04-2.24 23.97 3.42 30.69 13.66 2.72 4.15 7.19 8.4 14.53 11.53 20.3 8.66 41.92 44.47 38 81.68Z" style="fill:#ffe600"/><path d="M287.14 327.83c3.97-17.06.46-35.52-8.27-50.57-6.56-11.37-16.01-20.83-26.65-28.43-3.5-2.65-7.43-4.67-10.9-7.35-3.48-2.71-6.68-5.91-8.91-9.81-5.01-8.43-2.39-18.07 4.52-24.46 18.04-16.81 54.31-17.47 75.32-6.06 7.82 4.29 14.76 10.94 17.64 19.59 3.19 9.06-.02 19.57-9.54 23.17-4.27 1.68-8.79 1.71-13.27 2.04-8.82.51-17.81-.03-26.43-2.05-8.67-1.98-16.95-5.52-24.54-10.11-7.26-4.62-14.43-9.69-22.97-11.58-17-4.12-34.57 1.36-50.66 7.05-19.77 4.78-45.22 5.05-58.53-13.03-10.16-13.98-10.35-33.2-4.31-48.88 3.21-7.91 8.4-14.89 14.75-20.55 6.48-5.61 14.18-10.42 23.1-10.75 10.14-.49 17.42 9.22 15.16 18.86-2.02 8.95-11.01 15.12-19.86 15.88-9.03.91-18.46-4.29-21.91-12.81-5.1-12.62 1.14-26.28 8.62-36.48 15.57-20.95 43.75-27.73 68.63-24.7 6.25.73 12.63 2.24 18.44 4.86 9.7 4.05 18.59 10.01 26.72 16.47 9.71 7.41 18.27 16.42 29.58 20.88 6.36 2.23 15.64 3.27 19.68-3.26 5.09-9.88-2.75-23.29-12.64-26.81-5.15-1.97-11.3-1.57-16.4.48-5.32 2.21-9.11 6.63-12.12 11.58-10.29 17.88-12.68 38.96-22.36 57.34-3.01 5.67-7.04 11.3-12.58 14.94-5.74 3.67-12.61 5.42-19.49 4.17-15.59-3.07-20.72-21.11-10.94-32.97 8.44-10.44 22.17-13.65 34.82-15.19 30.28-3.75 65.85 4.04 88.63 25.2 11.85 12.92 27.07 43.82 45.4 46.3 15.04 1.22 23.57-21.23 27.1-33.17 4.19-15.26 5.68-32.12.95-47.33-2.41-7.44-6.72-14.28-13.08-18.53-10.72-7.24-27.15-7.95-37.5.33-6.9 6.53-2.94 18.23 3.83 23.44 5.78 4.87 14.1 4.31 19.61-.62 5.77-4.88 8.96-12.54 9.36-20.07.81-24.81-21.11-42.96-40.77-54.57-6.98-4.1-14.32-7.58-22-9.6-7.43-1.92-15.66-2.46-22.73.69-6.88 2.93-11.78 9.82-12.06 17.29-.48 7.49 4.43 14.35 12.11 14.78 8.41.89 12.66-4.93 11.98-13.14-1.57-15.72-13.56-29.19-27.38-36.04-14.42-7.21-31.53-6.79-46.99-3.59-11.23 2.61-23.34 8.01-27.93 19.09-1.36 3.47-1.56 7.34-.29 10.71 2.99 7.48 10.67 10.04 17.66 5.78 9.43-5.43 16.12-19.5 8.55-28.94-7.7-9.06-21.54-10.34-32.8-10.78-7.86-.25-17.04.59-24.23 1.46-16.39 4.02-33.13 9.46-46.49 19.98-6.37 5.13-12.01 12-13.26 20.22-2.19 12.25 8.49 24.66 20.96 23.96 4.14-.2 8.32-.99 11.83-2.93 5.51-2.82 7.91-9.17 4.63-14.61-5.58-9.06-17.8-10.63-27.62-9.56-8.39.94-16.54 3.76-24.23 7.4-21.57 12.16-34.52 37.11-29.06 62.08 2.21 9.95 8.44 23.17 20.22 23.03 4.81-.46 9.84-3.21 12.38-7.3 4.26-7.55-2.25-15.95-8.66-19.84-6.81-4.32-16.19-5.1-22.81-.03-6.64 4.95-9.72 13.27-11.44 21.13-1.9 14.19 1.06 30.29 12.06 40.44 10.74 10.15 25.87 14.52 40.39 15.19-33.39-1.39-57.6-20.12-53.27-55.76 2.01-9.99 6.8-21.34 17.31-24.74 10.32-3.16 22.05 2.56 27.23 11.77 3.57 6.19 1.88 13.35-4.11 17.21-5.48 3.91-12.56 4.78-18.27.74-7.13-4.95-10.79-13.3-12.71-21.46-5.79-25.61 7.25-51.68 29.76-64.48 11.7-5.59 25.03-9.76 38.17-7.52 6.55 1.18 13.41 4.39 16.92 10.42 4.06 6.76 1.17 14.68-5.58 18.25-4.06 2.25-8.59 3.09-13.01 3.33-14.27.83-26.37-13.14-23.97-27.13 4.59-25.69 39.73-37.43 61.87-42.94 12.4-1.6 25.12-2.51 37.6-.64 8.4 1.38 17.27 4 22.96 10.94 6 7.14 4.82 17.85-.09 25.17-5.89 9.59-19.32 16.79-28.64 7.34-8.94-8.88-4.55-22.72 4.1-29.95 9.78-8.52 22.87-11.69 35.46-12.87 21.72-2.46 43.27 3.95 57.12 21.6 5.3 6.82 9.33 14.81 10.03 23.61.92 10.77-5.46 18.92-16.71 17.84-10.19-.63-16.77-9.6-16.22-19.37.3-9.17 6.31-17.65 14.68-21.25 22.56-9.68 52.54 9.3 69.46 23.54 9.5 8.31 17.94 18.89 21.31 31.37 3.51 12.69.76 27.55-9.66 36.48-12.12 10.47-28.4 3.99-33.62-10.24-5.76-16.73 7.02-25.52 22.23-26.96 31.57-1.87 44.54 24.56 43.2 52.63-1.01 32.18-22.28 87.61-58.43 48.13-5.79-6.19-10.69-12.96-15.46-19.7-4.74-6.51-8.78-13.53-15.27-18.37-19.22-14.57-44.06-21.22-68.03-20.79-14.39.55-34.02 2.32-43.67 14.2-7.55 9.04-3.95 22.84 8.05 25.2 22.15 3.23 30.24-22.3 35.79-39.2 5.6-16.03 10.86-41 28.03-48.41 6.34-2.5 13.38-2.92 19.83-.5 8.54 3.22 14.8 11.02 16.68 19.87 2.28 10.1-2.82 19.9-13.81 20.64-17.9 1.44-30.98-13.73-43.88-23.5-21.31-17.06-39.49-24.01-66.98-20.21-19.86 2.72-38.55 14.14-46.95 32.75-3.24 6.88-5.08 15.14-2.09 22.29 5.39 12.83 22.91 13.85 31.47 3.64 6.95-7.65 2.53-20.81-8.44-20.42-7.72.22-15.04 4.76-20.82 9.76-15.39 13.07-21.56 35.2-15.53 54.39 8.51 26.47 37.34 28.21 60.64 22.6 7.36-2.74 16.84-5.61 25.32-7.12 8.71-1.56 17.88-1.93 26.64.31 4.37 1.09 8.57 2.79 12.49 4.96 3.89 2.08 7.39 4.79 11.16 7.03 7.37 4.5 15.37 7.95 23.77 9.95 8.4 2.05 17.13 2.6 25.76 2.17 4.2-.28 8.65-.28 12.6-1.8 13.81-5.58 10.77-22.44 1.95-31.36-18.33-19.93-63.99-20.72-83.73-2.45-6.59 5.98-9.15 15.12-4.46 23.07 2.1 3.74 5.19 6.89 8.58 9.57 3.45 2.69 7.34 4.74 10.82 7.4 10.66 7.72 20.08 17.38 26.58 28.87 8.62 15.21 11.98 33.73 7.84 50.82Z" style="fill:#1d1d1b"/></svg>