<?xml version="1.0" encoding="UTF-8"?><svg xmlns="http://www.w3.org/2000/svg" viewBox="0 0 573.89 301.39"><defs><style>.cls-1{stroke-width:4px}.cls-1,.cls-2{fill:none;stroke:#000;stroke-miterlimit:10}.cls-4{fill:#ffe600}.cls-5{fill:#1d1d1b}</style></defs><g id="Calque_1" data-name="Calque 1"><path d="M126.87 45.84c-24.03 0-43.51 19.48-43.51 43.51s19.48 43.51 43.51 43.51 43.51-19.48 43.51-43.51-19.48-43.51-43.51-43.51Zm-16.26 61s15.69 10.85 33.5 0c-14.72 12.78-16.27 14.91-33.5 0ZM181.23 277.08H77.94v-58.36s-1.55-8.78-10.33 3.1c-8.78 11.88-51.13 75.4-51.13 75.4s-17.56 12.91-9.81-6.71c7.75-19.63 50.1-120.85 50.1-120.85s6.2-21.69 29.44-21.69c6.82 0 8.84-.1 19.63-.1 2.47 0 9.82 1.73 15.05 3.04 3.75.94 7.64 1.05 11.44.35 7.03-1.3 18.27-3.29 21.28-3.29h16.53s10.59-2.07 26.6 12.91c13.94 11.36 26.86 23.24 26.86 23.24s9.3 7.75 26.34 1.55 47.83-15.95 56.29-19.63c7.49-3.49 20.4-.26 6.52 10.33-17.88 12.39-67.46 41.83-67.46 41.83s-7.75 6.71-26.86-2.58c-19.11-9.3-27.89-14.98-27.89-14.98s-9.3-5.16-9.3 13.94v62.49Z" class="cls-4"/><path d="M178.06 272.59c-35.17.27-70.57.46-105.85.44v-1.5c.11.1.29-59.05.41-58.17-.38-1.85-1.44-2.86-3.16-1.8-1.65.93-3.11 2.61-4.45 4.25-2.62 3.44-5.16 7.08-7.68 10.67-5.04 7.21-10.03 14.47-15.01 21.73-9.96 14.53-19.86 29.09-29.74 43.68-1.3 1.04-2.76 1.88-4.21 2.69-10.82 5.66-9.11-3.77-6.04-10.88 11.69-29.72 36.77-90.36 48.97-119.95 3.33-10.26 11.57-19.01 22.18-21.65 4.42-1.3 11.1-1.03 15.72-1.1 2.71-.06 9.04-.05 11.62-.08 3.98.01 7.9 1.17 11.74 1.98 2.22.48 5.23 1.39 7.41 1.63 4.29.77 10.63-.78 14.9-1.51 5.16-.81 10.32-2.01 15.57-2.07 4.09 0 12.42-.05 15.38-.02 6.52.49 12.42 4.03 18.01 7.11 3.14 1.83 6.47 4.08 9.48 6.16 7.38 6.02 14.5 12.32 21.54 18.71l5.22 4.8c1.66 1.31 3.87 2.23 5.92 2.84 4.36 1.28 9.07 1.26 13.59.39 4.14-.77 9.4-2.9 13.42-4.2 15.89-5.43 33-10.59 48.61-16.61 5.63-3.05 18.64-1.58 11.53 7.17-3.13 3.67-7.43 6-11.35 8.68-3.96 2.59-7.95 5.13-11.95 7.65-15.86 9.95-32.64 20.15-48.34 29.51-2.64 1.92-5.75 2.42-8.87 2.53-9.2.14-17.52-4.25-25.52-8.23-5.32-2.67-10.61-5.42-15.8-8.35-1.79-1.02-3.72-2.13-5.43-3.2-9.86-3.85-7.57 16.98-7.78 22.27.09 17.56.14 36.97 0 54.44Zm-2.12-2.12c-.12-16.84-.12-35.6 0-52.55.4-6.57-1.89-24.05 7.86-24.38 1.1.05 2.19.31 3.13.88 6.75 4.21 13.79 7.94 20.87 11.59 9.22 4.69 22.99 12.14 32.92 6.09 20.3-12.1 40.6-24.22 60.46-37.03 3.6-2.47 16.17-9.5 12.14-14-3.2-2.31-7.89-1.53-11.33-.05-2.75 1.16-5.53 2.18-8.31 3.18-13.36 4.79-26.86 9.14-40.2 13.96l-6.65 2.43c-7.82 3.08-16.97 4.25-24.9.71-1.24-.56-2.2-1.07-3.33-1.94l-5.31-4.7c-6.97-6.11-14.7-12.58-21.56-18.19-1.81-1.24-4.34-2.92-6.18-4.06-5.89-3.52-12.05-7.23-18.88-8.44-1.97-.12-16.23-.09-18.06-.04-6.66.6-14.24 2.19-20.88 3.3-3.99.65-8.2.4-12.07-.66-4.21-1-8.79-2.23-13.05-2.78-3.57-.19-9.78 0-13.37-.03l-7.73.04c-10.01-.14-19.5 5.4-24.56 14.01-12.2 26.68-36.54 86.57-48.01 113.02l-3.7 8.86c-1.28 3.6-6.02 12.4-3.52 15.25 2.64 1.75 8.34-2.37 10.22-3.48 17.08-25.7 33.7-51.67 51.49-76.9 1.78-2.13 3.84-4.92 6.94-5.54 2.43-.42 4.1 1.93 4.47 4.04-.02.12.41 58.35.39 58.48l-1.5-1.5c34.08-.02 68.04.18 102.23.44Z" class="cls-5"/><path d="M122.64 40.35c-38.46.21-57.5 46.73-30.24 73.76 15.95 16.43 44.54 16.43 60.49 0 27.25-27.04 8.21-73.54-30.24-73.76Zm0 0c38.82 0 58.54 47.07 31.3 74.81-16.62 17.3-45.98 17.3-62.59 0-27.24-27.75-7.52-74.81 31.3-74.81Z" style="fill:#1d1d1b;stroke:#1d1d1b;stroke-width:2px;stroke-miterlimit:10"/><path d="M106.37 101.35c10.2 5.73 23.16 5.49 33.06-.74l7.29-4.13-6.28 5.52c-15.46 14.18-18.97 13.67-34.07-.65Zm0 0c16.32 12.53 17.45 13.33 32.94-.65l1.01 1.39c-10.22 6.39-24.08 6.3-33.95-.74Z" class="cls-5"/></g><g id="Calque_2" data-name="Calque 2"><circle cx="270.77" cy="72.36" r="34.22" class="cls-4"/><rect width="164.23" height="44.04" x="350.91" y="42.8" class="cls-4" rx="12" ry="12"/><rect width="164.23" height="44.04" x="350.91" y="99.76" class="cls-4" rx="12" ry="12"/><rect width="164.23" height="44.04" x="350.91" y="156.72" class="cls-4" rx="12" ry="12"/><circle cx="265.54" cy="67.13" r="34.22" class="cls-2"/><path d="M139.88 2h434.01" class="cls-1"/><path d="M546 2c.74 39.86 1.25 101.19 1.53 141.62.23 25.07.25 50.16.37 75.23.03 1.67-.18 3.24-.49 4.81-1.81 9.79-9.73 17.07-19.37 18.93-5.17 1.35-12.73.84-18.06.96-91.41.08-191.91-.39-283.26-1.67l-17.7-.3 17.7-.3c91.34-1.28 191.86-1.76 283.26-1.67 4.88-.06 12.49.35 17.22-.82 8.17-1.52 14.95-7.62 16.46-15.89.27-1.33.45-2.7.44-3.98.12-25.08.14-50.17.37-75.25.14-40.54.89-101.57 1.53-141.64Z"/><path d="M355.43 241.56v38.55" class="cls-1"/><circle cx="355.43" cy="281.89" r="5.16"/><ellipse cx="265.05" cy="67.2" class="cls-2" rx="16.27" ry="34.15"/><path d="M238.75 45.84s25.85 13.37 53.57 0M238.26 86.84s25.85-13.37 53.57 0" class="cls-2"/><circle cx="265.54" cy="67.13" r="34.22" class="cls-2"/><rect width="164.23" height="44.04" x="345.68" y="37.57" class="cls-2" rx="12" ry="12"/><rect width="164.23" height="44.04" x="345.68" y="94.53" class="cls-2" rx="12" ry="12"/><rect width="164.23" height="44.04" x="345.68" y="151.5" class="cls-2" rx="12" ry="12"/><rect width="164.23" height="44.04" x="345.68" y="37.57" class="cls-2" rx="12" ry="12"/><rect width="164.23" height="44.04" x="345.68" y="94.53" class="cls-2" rx="12" ry="12"/><rect width="164.23" height="44.04" x="345.68" y="151.5" class="cls-2" rx="12" ry="12"/></g></svg>