<?xml version="1.0" encoding="UTF-8"?><svg xmlns="http://www.w3.org/2000/svg" id="Calque_2" data-name="Calque 2" viewBox="0 0 453.62 581.65"><defs><style>.cls-1{fill:#ffe600}.cls-2{fill:#0d0003}.cls-3{stroke-width:3px}.cls-3{fill:none;stroke:#000;stroke-miterlimit:10}</style></defs><path d="M288.71 119.44s-26.87 62.21-170.06 70.68c-7.73-73.25 35.34-109.33 57.42-123.31 0 0 16.93-56.32 73.99-56.32s66.26 52.64 66.99 59.63c22.82 5.15 62.95 58.9 50.06 107.85-34.97-42.33-78.41-58.53-78.41-58.53h.01Z" class="cls-1"/><path d="M127.12 190.11s16.29 78.41 120 121.11c103.71-42.7 114.98-139.09 114.98-139.09l-234.98 17.99Zm146.1 134c30.85-8.64 32.42-3.57 72.18.11 53.74.12 108.22 256.73 108.22 256.73s-25.77 1.55-50.06 0c-7.36-40.57-46.38-133.17-54.48-146.42s-8.1 3.68-8.1 3.68l.05 34.29c.03 16.1 2.35 32.11 6.91 47.55l17.98 60.91H119.66l22.14-64.53c4.69-13.68 6.4-28.21 4.99-42.61l-3.84-39.29s2.94-21.35-9.2-8.83c-29.08 36.07-76.2 154.6-76.2 154.6s-48.59 1.47-48.59 0c16.93-52.27 96.44-249.57 124.79-256.94 28.34-7.36 75.06-2.82 75.06-2.82s22.66 15.27 64.42 3.57h-.01Z" class="cls-1"/><path d="M362.09 172.13s-38.36-155.14-234.98 17.99" class="cls-1"/><path d="M281.26 110.45s-26.87 62.21-170.06 70.68c-7.73-73.25 35.34-109.33 57.42-123.31 0 0 16.93-56.32 73.99-56.32s66.26 52.64 66.99 59.63c22.82 5.15 62.95 58.9 50.06 107.85-34.97-42.33-78.4-58.53-78.4-58.53Z" class="cls-3"/><path d="M168.62 57.81s73.62-22.45 140.98 3.31" class="cls-3"/><path d="M164.26 78.2c-1.78 2.3-3.61 4.5-5.42 6.76-1.58 2.32-3.43 4.73-4.96 7.04-4.08 6.22-7.96 13.25-11.19 19.95-7.25 15.65-12.6 32.09-16.4 48.93.45-7.72 1.87-15.38 3.78-22.89 5.83-22.4 16.59-44.34 34.2-59.79Zm-35.03 94.46c39.71-7.97 88.51-20.24 120.51-45.77 4.79-3.9 9.22-8.26 13.12-13.13-3.36 5.26-7.56 9.97-12.15 14.24-29.92 27.13-81.88 40.74-121.47 44.66Zm158.29-70.31c21.65 5.1 52.85 19.47 62.21 40.86-1.77-2.6-3.77-5.05-5.96-7.31-6.52-6.74-14.35-12.06-22.41-16.8-10.85-6.39-22.29-11.66-33.85-16.75h.01Z"/><path d="M354.64 163.14s-11.26 96.39-114.98 139.09c-103.71-42.7-120-121.11-120-121.11" class="cls-3"/><rect width="58.25" height="28.16" x="155.28" y="199.44" class="cls-3" rx="5.67" ry="5.67"/><rect width="58.25" height="28.16" x="258.39" y="199.44" class="cls-3" rx="5.67" ry="5.67"/><path d="M213.53 213.52s21.26-9.39 44.86 0" class="cls-3"/><path d="M207.73 254.38s31.75 14.63 52.18 0c-17.39 25.12-19.6 24.85-52.18 0Z" style="stroke-width:2px;fill:none;stroke:#000;stroke-miterlimit:10"/><path d="M273.47 313.5s34.93-5.53 64.47 1.73c53.74.12 108.22 256.73 108.22 256.73s-25.77 1.55-50.06 0c-7.36-40.57-46.38-133.17-54.48-146.42s-8.1 3.68-8.1 3.68l.18 49.11c.05 13.7 1.98 27.33 5.75 40.5l15.18 53.13H114.14l23.04-60.39c3.99-10.46 5.43-21.72 4.2-32.84l-5.89-53.19s2.94-21.35-9.2-8.83c-29.08 36.07-76.2 154.6-76.2 154.6s-48.59 1.47-48.59 0c16.93-52.27 96.69-248.69 124.79-256.94 31.89-9.36 75.06-2.82 75.06-2.82s35.3 22.63 72.12 1.95Z" class="cls-3"/><circle cx="179.16" cy="191.21" r="7.59" class="cls-2"/><circle cx="290.69" cy="191.21" r="7.59" class="cls-2"/><path d="M135.6 312.46s19.07 41.84.18 109.21m197.95 4.41s-11.61-72.07 4.22-110.84" class="cls-3"/><path d="M264.51 240.94c3.05-2.31 8.86-3.89 10.94.46 2.19 5.19-.04 11.28-1.78 16.25-1.1 2.88-2.46 5.65-4 8.31 1.54-5.86 3.62-11.62 4.49-17.57 1.29-8.2-2.22-10.11-9.65-7.46Zm-59.45.93c-4.05-.15-16.49-1.59-17.1 3.73.02 2.01.94 3.85 2.09 5.65 2.84 4.53 6.58 8.37 10.04 12.5-5.17-4-14.04-11.25-14.1-18.29 1.09-7.64 14.01-5.14 19.07-3.59Z"/><path d="M141.64 491.29s86.02 29.23 192.15 3.83" class="cls-3"/></svg>