<?xml version="1.0" encoding="UTF-8"?><svg xmlns="http://www.w3.org/2000/svg" id="Calque_1" data-name="Calque 1" viewBox="0 0 61.19 34.67"><defs><style>.cls-2{fill:#fcfcfc}</style></defs><path d="M2.23 4.73h4.5c5.26 0 8.27 3.03 8.27 8.76s-3.01 8.92-8.13 8.92H2.23V4.73ZM6.55 20.2c3.69 0 5.65-2.3 5.65-6.71s-1.96-6.55-5.65-6.55H4.94V20.2h1.61ZM16.43 4.71h2.95l1.09 10.67c.13 1.49.22 2.47.29 4.18h.09c.3-1.71.53-2.7.86-4.16l1.59-6.15h2.26l1.53 6.15c.35 1.45.56 2.44.86 4.16h.11c.09-1.72.13-2.7.26-4.16l1.05-10.69h2.8l-2.48 17.7h-3.18l-1.55-6.69c-.25-1.09-.47-2.16-.6-3.23h-.08c-.17 1.07-.33 2.14-.58 3.23l-1.54 6.69h-3.12l-2.6-17.7ZM39.14 7.02h-5.71V4.74h14.12v2.28h-5.71v15.39h-2.71V7.02Z" class="cls-2"/><path d="M49.7 21.64h11.48v4.59H49.7z" style="fill:#fcdc02"/></svg>