<?xml version="1.0" encoding="UTF-8"?>
<svg id="Calque_2" data-name="Calque 2" xmlns="http://www.w3.org/2000/svg" viewBox="0 0 200.5 106.24">
  <defs>
    <style>
      .cls-1 {
        fill: #ffe600;
      }
    </style>
  </defs>
  <path class="cls-1" d="M140.74,40.03c.02,.18,.04,.36,.06,.54,.25,2.46,.31,4.92,.24,7.37,18.03,9.16,39.62,10.48,59.16,6.32-20.45,.56-42.26-2.77-59.46-14.23Z"/>
  <g>
    <path class="cls-1" d="M61.19,40.57c.07-.6,.14-1.24,.21-1.88-2.92,2.12-6.02,4-9.28,5.64-15.86,7.88-34.43,10.48-52.12,9.93,4.45,1.08,9.02,1.65,13.6,1.99,16.11,1.08,33.01-1.37,47.35-9.21-.02-2.16,.06-4.31,.23-6.47Z"/>
    <path class="cls-1" d="M127.57,28.35c-7.76-7.6-18.62-11.21-29.24-10.77-4.45,.08-8.94,.87-13.07,2.57-5.6,2.25-10.1,5.86-14.22,9.9,.22,3.14,.56,6.27,.89,9.41,2.03-1.79,3.98-3.69,5.91-5.47,5.86-5.18,12.82-8.47,20.6-8.43,.81,0,2.44,.02,3.25,0,7.51,.24,15.13,3.16,20.66,8.25,2.15,2.18,4.83,4.8,7.57,7.02,0-.09,.01-.19,.02-.28,.31-2.61,.6-5.68,.86-8.85-1.08-1.11-2.16-2.24-3.22-3.36Z"/>
  </g>
  <path class="cls-1" d="M172.64,47.92c-12.03-3.82-23.55-9.5-32.86-17.95,.13,1.85,.3,3.69,.49,5.54,13.15,9.87,29.45,15.13,45.68,17.07,4.67,.55,9.37,.83,14.05,.7-9.33-.74-18.51-2.62-27.36-5.36Z"/>
  <g>
    <path class="cls-1" d="M62.36,27.6C45.96,43.79,22.63,51.18,0,53.28c21.88,.19,44.77-5.77,61.9-19.79,.17-1.93,.32-3.92,.47-5.88Z"/>
    <path class="cls-1" d="M100.01,7.37c-10.98-.04-21.86,4.24-29.79,11.78,.17,1.96,.33,3.91,.47,5.83,1.49-1.57,3.02-3.08,4.73-4.32,12.18-9.59,30.03-11.02,43.55-3.42,3.89,2.09,7.43,4.85,10.4,8.12,.51,.58,1.13,1.25,1.77,1.93,.15-2.08,.29-4.13,.41-6.03-7.98-8.76-19.68-13.84-31.54-13.9Z"/>
  </g>
  <path class="cls-1" d="M66.64,0c1.02,11.04,2.17,23.52,2.74,34.65,.15,2.86,.42,5.71,.65,8.57,.47,5.75-.05,11.46-.98,17.13-.49,2.86-1.1,5.71-2.09,8.57l-.33,1.06-.36-1.06c-2.6-8.22-3.63-16.97-3.07-25.7,.48-4.95,.86-12.09,1.12-17.13,.54-8.31,1.52-17.83,2.31-26.08Z"/>
  <path class="cls-1" d="M135.29,0c1.1,11.04,2.34,23.52,2.95,34.65,.16,2.86,.45,5.71,.7,8.57,.5,5.75-.06,11.46-1.05,17.13-.53,2.86-1.19,5.71-2.25,8.57l-.36,1.06-.39-1.06c-2.8-8.22-3.91-16.97-3.3-25.7,.51-4.95,.93-12.09,1.21-17.13,.59-8.31,1.64-17.83,2.48-26.08Z"/>
  <g>
    <path class="cls-1" d="M12.79,76.22c6.62,0,11.78,4.7,11.78,11.77,0,6.66-5.25,11.52-11.84,11.52H4.41v-.19c.8-.32,1.22-1.31,1.22-2.27v-18.37c0-.96-.42-1.95-1.22-2.27v-.19H12.79Zm-3.94,22.85h3.81c4.93,0,8.26-3.78,8.26-11.1s-3.26-11.3-8.19-11.3h-3.87v22.4Z"/>
    <path class="cls-1" d="M27.48,99.52v-.19c.8-.32,1.12-1.31,1.12-2.27v-9.98c0-1.44-.54-2.05-1.34-2.75v-.16c1.02-.38,3.04-1.06,4.32-1.5h.13v14.4c0,.96,.35,1.95,1.15,2.27v.19h-5.38Zm.48-22.27c0-1.09,.9-2.02,2.05-2.02,1.09,0,2.02,.93,2.02,2.02,0,1.18-.93,2.08-2.02,2.08-1.15,0-2.05-.9-2.05-2.08Z"/>
    <path class="cls-1" d="M43.29,96.86c4,.29,6.46,1.73,6.46,4.51,0,3.04-3.3,4.86-7.81,4.86-3.71,0-7.26-1.28-7.26-4,0-1.76,1.76-2.78,3.36-3.36-1.38-.22-2.37-1.02-2.37-2.18,0-1.73,1.47-2.66,3.2-3.39-1.95-.93-3.04-2.75-3.04-5.02,0-3.3,2.43-5.79,6.4-5.79,1.28,0,2.43,.29,3.36,.83,1.54-.45,3.46-1.15,4.45-1.79l.32,2.82-4.26-.7c1.38,1.02,2.21,2.66,2.21,4.64,0,3.26-2.43,5.73-6.08,5.73-1.15,0-2.18-.19-3.04-.54-1.22,.51-1.95,1.06-1.95,1.73s.61,1.15,1.76,1.25l4.29,.42Zm4.32,5.54c0-1.79-1.41-2.78-3.71-3.01-2.08-.22-4.29-.38-5.38-.45h-.16c-1.06,.58-1.6,1.79-1.6,3.07,0,2.34,2.11,3.84,5.18,3.84,3.62,0,5.66-1.12,5.66-3.46Zm-8.8-14.11c0,3.58,1.22,5.38,3.42,5.38,1.86,0,3.1-1.82,3.1-5.38s-1.25-5.44-3.1-5.44c-2.18,0-3.42,1.86-3.42,5.44Z"/>
    <path class="cls-1" d="M52.09,99.52v-.19c.8-.32,1.12-1.31,1.12-2.27v-9.98c0-1.44-.54-2.05-1.34-2.75v-.16c1.02-.38,3.04-1.06,4.32-1.5h.13v14.4c0,.96,.35,1.95,1.15,2.27v.19h-5.38Zm.48-22.27c0-1.09,.9-2.02,2.05-2.02,1.09,0,2.02,.93,2.02,2.02,0,1.18-.93,2.08-2.02,2.08-1.15,0-2.05-.9-2.05-2.08Z"/>
    <path class="cls-1" d="M69.31,94.69c0,2.27-.7,5.06-3.81,5.06-2.72,0-4-2.02-4-4.96v-11.42h-2.18v-.1c1.86-1.09,3.52-2.21,5.18-3.46h.1v3.14h4.32v.38h-4.32v11.68c0,2.53,1.02,3.42,2.18,3.42,1.76,0,2.34-1.79,2.34-3.74h.19Z"/>
    <path class="cls-1" d="M86.58,97.25l.06,.1c-.61,1.7-1.5,2.4-2.98,2.4s-2.72-.9-3.04-3.07v-.1c-1.5,1.89-3.55,3.17-6.05,3.17s-4.03-1.34-4.03-3.46,1.54-3.68,5.28-5.02l4.77-1.7v-1.28c0-2.05-.77-4.51-4-4.51-2.94,0-4.96,2.43-4.96,4.54h-.16c0-2.88,2.18-5.92,6.08-5.92,4.35,0,6.08,2.82,6.08,6.75v7.14c0,1.57,.54,2.11,1.41,2.11,.58,0,1.09-.32,1.5-1.15h.03Zm-5.98-.93v-6.5l-3.42,1.41c-3.04,1.31-3.87,2.94-3.87,4.48s.99,2.78,2.78,2.78c2.14,0,3.58-1.12,4.51-2.18Z"/>
    <path class="cls-1" d="M87.58,99.52v-.19c.8-.32,1.12-1.31,1.12-2.27v-17.79c0-1.44-.54-2.05-1.38-2.75v-.16c1.22-.45,3.07-1.09,4.29-1.54h.19v22.24c0,.96,.35,1.95,1.15,2.27v.19h-5.38Z"/>
    <path class="cls-1" d="M121.08,92.64c-.03,4.67-3.71,6.88-9.22,6.88h-8.1v-.19c.8-.32,1.22-1.18,1.22-2.5v-17.92c0-1.31-.42-2.18-1.22-2.5v-.19h8.8c4.77,0,7.42,1.7,7.42,5.09,0,2.5-1.86,4.32-5.7,4.83,4.26,.61,6.78,2.94,6.78,6.5Zm-12.86-16v9.28h3.97c2.72,0,4.35-1.47,4.35-4.61,0-3.65-2.21-4.67-5.22-4.67h-3.1Zm0,22.46h3.33c3.3,0,6.05-1.47,6.08-6.69,0-4-2.37-6.08-5.44-6.08h-3.97v12.77Z"/>
    <path class="cls-1" d="M135.74,83.39l-.93,2.27h-.06c-.9-1.22-1.89-1.66-3.04-1.66-2.18,0-3.2,1.63-3.55,2.34v10.72c0,.96,.32,1.95,1.12,2.27v.19h-5.34v-.19c.8-.32,1.12-1.25,1.12-2.27v-10.02c0-1.22-.54-1.95-1.38-2.66v-.13c1.18-.45,2.98-1.09,4.19-1.54h.16v3.36c1.09-2.02,2.91-3.68,4.99-3.68,1.22,.03,2.05,.45,2.72,.99Z"/>
    <path class="cls-1" d="M137.34,99.52v-.19c.8-.32,1.12-1.31,1.12-2.27v-9.98c0-1.44-.54-2.05-1.34-2.75v-.16c1.02-.38,3.04-1.06,4.32-1.5h.13v14.4c0,.96,.35,1.95,1.15,2.27v.19h-5.38Zm.48-22.27c0-1.09,.9-2.02,2.05-2.02,1.09,0,2.02,.93,2.02,2.02,0,1.18-.93,2.08-2.02,2.08-1.15,0-2.05-.9-2.05-2.08Z"/>
    <path class="cls-1" d="M160.6,74.82v22.24c0,.96,.35,1.95,1.15,2.27v.19h-4.03l-.19-3.1c-1.18,1.92-3.2,3.33-5.73,3.33-3.62,0-6.53-2.82-6.53-8,0-5.6,3.62-9.31,7.58-9.31,1.66,0,3.52,.74,4.64,2.02v-5.18c0-1.44-.54-2.05-1.38-2.75v-.16c1.06-.38,3.1-1.06,4.35-1.54h.13Zm-3.1,21.31v-11.36c-.86-.93-2.4-1.34-3.68-1.34-3.17,0-5.25,2.91-5.25,8.06,0,4.38,1.82,6.91,4.51,6.91,1.92,0,3.49-.93,4.42-2.27Z"/>
    <path class="cls-1" d="M159.56,104.22c5.81,1.67,11.28,1.63,11.28,1.63,3.62,0,5.66-1.12,5.66-3.46,0-1.79-1.41-2.78-3.71-3.01-2.08-.22-4.28-.36-5.37-.43l-.16-.02c-1.38-.22-2.69-1.09-2.69-2.24,0-1.73,1.47-2.66,3.2-3.39-1.95-.93-3.04-2.75-3.04-5.02,0-3.3,2.43-5.79,6.4-5.79,1.28,0,2.43,.29,3.36,.83,1.54-.45,3.46-1.15,4.45-1.79l.32,2.82-4.26-.7c1.38,1.02,2.21,2.66,2.21,4.64,0,3.26-2.43,5.73-6.08,5.73-1.15,0-2.18-.19-3.04-.54-1.22,.51-1.95,1.06-1.95,1.73s.61,1.15,1.76,1.25l4.29,.42c4,.29,6.46,1.73,6.46,4.51,0,3.04-3.3,4.82-7.81,4.86-.23,0-5.8-.09-11.28-2.02Zm8.15-15.94c0,3.58,1.22,5.38,3.42,5.38,1.86,0,3.1-1.82,3.1-5.38s-1.25-5.44-3.1-5.44c-2.18,0-3.42,1.86-3.42,5.44Z"/>
    <path class="cls-1" d="M183.83,89.89v.26c0,4.48,2.43,7.81,6.08,7.81,2.11,0,3.84-.54,5.22-2.37l.1,.13c-1.15,2.27-3.1,4.03-6.43,4.03-4.77,0-8.25-3.36-8.25-8.61,0-4.93,3.23-8.74,7.97-8.74s7.07,2.88,7.1,7.17v.32h-11.78Zm0-.38h8.86c0-4.32-1.34-6.69-4.13-6.69s-4.54,2.85-4.74,6.69Z"/>
  </g>
</svg>