<?xml version="1.0" encoding="UTF-8"?>
<svg id="Calque_2" data-name="Calque 2" xmlns="http://www.w3.org/2000/svg" viewBox="0 0 200.5 69.97">
  <defs>
    <style>
      .cls-1 {
        fill: #ffe600;
      }
    </style>
  </defs>
  <path class="cls-1" d="M140.74,40.03c.02,.18,.04,.36,.06,.54,.25,2.46,.31,4.92,.24,7.37,18.03,9.16,39.62,10.48,59.16,6.32-20.45,.56-42.26-2.77-59.46-14.23Z"/>
  <g>
    <path class="cls-1" d="M61.19,40.57c.07-.6,.14-1.24,.21-1.88-2.92,2.12-6.02,4-9.28,5.64-15.86,7.88-34.43,10.48-52.12,9.93,4.45,1.08,9.02,1.65,13.6,1.99,16.11,1.08,33.01-1.37,47.35-9.21-.02-2.16,.06-4.31,.23-6.47Z"/>
    <path class="cls-1" d="M127.57,28.35c-7.76-7.6-18.62-11.21-29.24-10.77-4.45,.08-8.94,.87-13.07,2.57-5.6,2.25-10.1,5.86-14.22,9.9,.22,3.14,.56,6.27,.89,9.41,2.03-1.79,3.98-3.69,5.91-5.47,5.86-5.18,12.82-8.47,20.6-8.43,.81,0,2.44,.02,3.25,0,7.51,.24,15.13,3.16,20.66,8.25,2.15,2.18,4.83,4.8,7.57,7.02,0-.09,.01-.19,.02-.28,.31-2.61,.6-5.68,.86-8.85-1.08-1.11-2.16-2.24-3.22-3.36Z"/>
  </g>
  <path class="cls-1" d="M172.64,47.92c-12.03-3.82-23.55-9.5-32.86-17.95,.13,1.85,.3,3.69,.49,5.54,13.15,9.87,29.45,15.13,45.68,17.07,4.67,.55,9.37,.83,14.05,.7-9.33-.74-18.51-2.62-27.36-5.36Z"/>
  <g>
    <path class="cls-1" d="M62.36,27.6C45.96,43.79,22.63,51.18,0,53.28c21.88,.19,44.77-5.77,61.9-19.79,.17-1.93,.32-3.92,.47-5.88Z"/>
    <path class="cls-1" d="M100.01,7.37c-10.98-.04-21.86,4.24-29.79,11.78,.17,1.96,.33,3.91,.47,5.83,1.49-1.57,3.02-3.08,4.73-4.32,12.18-9.59,30.03-11.02,43.55-3.42,3.89,2.09,7.43,4.85,10.4,8.12,.51,.58,1.13,1.25,1.77,1.93,.15-2.08,.29-4.13,.41-6.03-7.98-8.76-19.68-13.84-31.54-13.9Z"/>
  </g>
  <path class="cls-1" d="M66.64,0c1.02,11.04,2.17,23.52,2.74,34.65,.15,2.86,.42,5.71,.65,8.57,.47,5.75-.05,11.46-.98,17.13-.49,2.86-1.1,5.71-2.09,8.57l-.33,1.06-.36-1.06c-2.6-8.22-3.63-16.97-3.07-25.7,.48-4.95,.86-12.09,1.12-17.13,.54-8.31,1.52-17.83,2.31-26.08Z"/>
  <path class="cls-1" d="M135.29,0c1.1,11.04,2.34,23.52,2.95,34.65,.16,2.86,.45,5.71,.7,8.57,.5,5.75-.06,11.46-1.05,17.13-.53,2.86-1.19,5.71-2.25,8.57l-.36,1.06-.39-1.06c-2.8-8.22-3.91-16.97-3.3-25.7,.51-4.95,.93-12.09,1.21-17.13,.59-8.31,1.64-17.83,2.48-26.08Z"/>
</svg>